<svg width="31" height="31" viewBox="0 0 31 31" fill="none" xmlns="http://www.w3.org/2000/svg">
<path d="M7.69072 2.30629C7.69072 2.30629 8.28174 1.96146 9.46377 1.2718C10.6458 0.582142 12.6365 0.237312 15.4359 0.237312C18.2352 0.237312 20.8169 0.926971 23.181 2.30629C25.5451 3.68561 27.4169 5.55706 28.7965 7.92064C30.1761 10.2842 30.8659 12.8654 30.8659 15.6642C30.8659 19.0255 29.8847 22.0486 27.9225 24.7336C25.9603 27.4186 23.4254 29.2766 20.318 30.3078C19.9564 30.3747 19.6885 30.3279 19.5144 30.1672C19.3402 30.0065 19.2532 29.8056 19.2532 29.5645C19.2532 29.5244 19.2565 29.0121 19.2632 28.0279C19.2699 27.0436 19.2733 26.143 19.2733 25.3262C19.2733 24.0272 18.925 23.0764 18.2285 22.4738C18.992 22.3934 19.6784 22.2729 20.2879 22.1122C20.8973 21.9515 21.5268 21.6904 22.1764 21.3288C22.8261 20.9672 23.3685 20.522 23.8038 19.993C24.2391 19.4641 24.5941 18.761 24.8687 17.8839C25.1432 17.0067 25.2805 15.999 25.2805 14.8608C25.2805 13.2672 24.7515 11.8879 23.6933 10.7228C24.1889 9.50418 24.1353 8.13826 23.5326 6.62502C23.1576 6.5045 22.6151 6.57815 21.9052 6.84598C21.1953 7.11381 20.5792 7.40842 20.0568 7.72982L19.2934 8.21191C18.0477 7.86373 16.7619 7.68964 15.4359 7.68964C14.1098 7.68964 12.824 7.86373 11.5784 8.21191C11.3641 8.0646 11.0794 7.88382 10.7245 7.66956C10.3695 7.45529 9.81034 7.19751 9.04688 6.8962C8.28341 6.59489 7.71416 6.5045 7.33913 6.62502C6.73639 8.13826 6.68282 9.50418 7.1784 10.7228C6.12027 11.8879 5.5912 13.2672 5.5912 14.8608C5.5912 15.999 5.72849 17.0034 6.00307 17.8738C6.27765 18.7443 6.62924 19.4473 7.05785 19.983C7.48646 20.5186 8.02558 20.9672 8.67519 21.3288C9.3248 21.6904 9.95433 21.9515 10.5638 22.1122C11.1732 22.2729 11.8596 22.3934 12.6231 22.4738C12.1007 22.9559 11.7726 23.6455 11.6386 24.5428C11.3574 24.6767 11.056 24.7771 10.7345 24.8441C10.4131 24.911 10.0313 24.9445 9.58934 24.9445C9.14733 24.9445 8.70867 24.8005 8.27337 24.5126C7.83806 24.2247 7.46637 23.8062 7.15831 23.2572C6.90382 22.8287 6.57901 22.4805 6.18389 22.2127C5.78876 21.9448 5.45726 21.7841 5.18937 21.7306L4.78755 21.6703C4.50628 21.6703 4.31206 21.7004 4.20491 21.7607C4.09776 21.821 4.06427 21.898 4.10445 21.9917C4.14464 22.0854 4.20491 22.1792 4.28527 22.2729C4.36564 22.3667 4.4527 22.447 4.54646 22.514L4.6871 22.6144C4.98177 22.7483 5.27309 23.0027 5.56106 23.3777C5.84903 23.7527 6.05999 24.0941 6.19393 24.4021L6.39484 24.8642C6.56897 25.373 6.86364 25.7848 7.27885 26.0995C7.69407 26.4142 8.14277 26.6151 8.62496 26.7021C9.10715 26.7892 9.57259 26.836 10.0213 26.8427C10.47 26.8494 10.8417 26.826 11.1364 26.7724L11.5985 26.6921C11.5985 27.201 11.6018 27.7935 11.6085 28.4698C11.6152 29.1461 11.6185 29.511 11.6185 29.5645C11.6185 29.8056 11.5315 30.0065 11.3574 30.1672C11.1832 30.3279 10.9154 30.3747 10.5537 30.3078C7.44628 29.2766 4.91145 27.4186 2.94921 24.7336C0.986977 22.0486 0.00585938 19.0255 0.00585938 15.6642C0.00585938 12.8654 0.695655 10.2842 2.07525 7.92064C3.45484 5.55706 5.32666 3.68561 7.69072 2.30629ZM5.85238 22.3934C5.89257 22.2997 5.84569 22.2193 5.71174 22.1524C5.5778 22.1122 5.49074 22.1256 5.45056 22.1926C5.41038 22.2863 5.45726 22.3667 5.5912 22.4336C5.71174 22.514 5.79881 22.5006 5.85238 22.3934ZM6.47521 23.0764C6.56897 23.0094 6.55557 22.9023 6.43503 22.755C6.30108 22.6345 6.19393 22.6144 6.11357 22.6947C6.01981 22.7617 6.0332 22.8688 6.15375 23.0161C6.28769 23.1501 6.39484 23.1701 6.47521 23.0764ZM7.07794 23.9803C7.19849 23.8866 7.19849 23.7594 7.07794 23.5987C6.97079 23.4246 6.85694 23.3844 6.73639 23.4781C6.61585 23.5451 6.61585 23.6656 6.73639 23.8397C6.85694 24.0138 6.97079 24.0607 7.07794 23.9803ZM7.92177 24.824C8.02892 24.7168 8.00214 24.5896 7.84141 24.4423C7.68068 24.2816 7.54674 24.2615 7.43958 24.3821C7.31904 24.4892 7.34582 24.6164 7.51995 24.7637C7.68068 24.9244 7.81462 24.9445 7.92177 24.824ZM9.06697 25.3262C9.10715 25.1789 9.02009 25.0717 8.80578 25.0048C8.60487 24.9512 8.47763 24.9981 8.42405 25.1454C8.37047 25.2927 8.45753 25.3931 8.68523 25.4467C8.88615 25.527 9.01339 25.4869 9.06697 25.3262ZM10.3327 25.4266C10.3327 25.2525 10.2189 25.1789 9.99116 25.2056C9.77685 25.2056 9.6697 25.2793 9.6697 25.4266C9.6697 25.6007 9.78355 25.6743 10.0113 25.6476C10.2256 25.6476 10.3327 25.5739 10.3327 25.4266ZM11.498 25.2257C11.4712 25.0784 11.3507 25.0182 11.1364 25.0449C10.922 25.0851 10.8283 25.1855 10.8551 25.3462C10.8819 25.5069 11.0024 25.5605 11.2167 25.5069C11.431 25.4534 11.5248 25.3596 11.498 25.2257Z" fill="white"/>
</svg>
