<svg width="32" height="33" viewBox="0 0 32 33" fill="none" xmlns="http://www.w3.org/2000/svg">
<g opacity="0.9">
<path d="M21.3405 11.381C23.4622 11.381 25.4971 12.2238 26.9974 13.7241C28.4976 15.2244 29.3405 17.2592 29.3405 19.381V28.7143H24.0072V19.381C24.0072 18.6737 23.7262 17.9954 23.2261 17.4953C22.726 16.9952 22.0477 16.7143 21.3405 16.7143C20.6333 16.7143 19.955 16.9952 19.4549 17.4953C18.9548 17.9954 18.6738 18.6737 18.6738 19.381V28.7143H13.3405V19.381C13.3405 17.2592 14.1833 15.2244 15.6836 13.7241C17.1839 12.2238 19.2188 11.381 21.3405 11.381Z" stroke="white" stroke-width="3" stroke-linecap="round" stroke-linejoin="round"/>
<path d="M8.00716 12.7143H2.67383V28.7143H8.00716V12.7143Z" stroke="white" stroke-width="3" stroke-linecap="round" stroke-linejoin="round"/>
<path d="M5.34049 8.71428C6.81325 8.71428 8.00716 7.52038 8.00716 6.04762C8.00716 4.57486 6.81325 3.38095 5.34049 3.38095C3.86774 3.38095 2.67383 4.57486 2.67383 6.04762C2.67383 7.52038 3.86774 8.71428 5.34049 8.71428Z" stroke="white" stroke-width="3" stroke-linecap="round" stroke-linejoin="round"/>
</g>
</svg>
